<?xml version="1.0" encoding="UTF-8" standalone="no"?>
<svg class="tourist--logo--svg" width="487px" height="180px" viewBox="0 0 487 180" version="1.1" xmlns="http://www.w3.org/2000/svg" xmlns:xlink="http://www.w3.org/1999/xlink">
    <!-- Generator: Sketch 39.1 (31720) - http://www.bohemiancoding.com/sketch -->
    <title>tourist-logo</title>
    <defs></defs>
    <g id="Symbols" stroke="none" stroke-width="1" fill="none" fill-rule="evenodd">
        <g id="blocks/navbar">
            <g id="Group-18">
                <g id="utf-8''%D0%A2%D1%83%D1%80%D0%B8%D1%81%D1%82%20%D0%9B%D0%9E%D0%93%D0%9E">
                    <polyline id="Fill-1" fill="#651C1E" points="150.006316 60.7855263 405.287763 60.7855263 401.345526 72.3896053 188.747763 72.3896053 177.070263 119.223947 161.979868 119.223947 173.672763 72.3896053 146.062895 72.3896053 150.006316 60.7855263"></polyline>
                    <polyline id="Fill-2" fill="#651C1E" points="416.210921 60.7855263 486.875132 60.7855263 482.932895 72.3896053 462.662763 72.3896053 450.985263 119.223947 435.894868 119.223947 447.587763 72.3896053 412.268684 72.3896053 416.210921 60.7855263"></polyline>
                    <polyline id="Fill-3" fill="#651C1E" points="390.794211 78.5178947 435.905526 78.5178947 433.111974 90.1207895 396.574342 90.1207895 392.211711 107.619868 428.897368 107.619868 426.103816 119.223947 375.241974 119.223947 385.550526 78.5178947 390.794211 78.5178947"></polyline>
                    <path d="M246.686447,119.223947 L256.849342,78.5178947 L309.228158,78.5178947 L301.471579,109.156974 L264.279079,109.156974 L261.768553,119.223947 L246.686447,119.223947 L246.686447,119.223947 Z M292.05,90.1207895 L269.024211,90.1207895 L267.172105,97.5528947 L290.399211,97.5528947 L292.05,90.1207895 L292.05,90.1207895 Z" id="Fill-4" fill="#651C1E"></path>
                    <path d="M309.306316,119.223947 L319.469211,78.5178947 L334.538289,78.5178947 L328.018026,104.666447 C336.436579,105.321316 347.852368,104.931711 354.640263,102.131053 L354.641447,102.131053 L360.536447,78.5178947 L375.605526,78.5178947 L365.455658,119.223947 L350.373553,119.223947 L351.845526,113.330132 C345.756316,116.859079 334.538289,119.223947 324.388421,119.223947 L309.306316,119.223947" id="Fill-5" fill="#651C1E"></path>
                    <polyline id="Fill-6" fill="#651C1E" points="192.230526 99.5494737 197.571316 78.1555263 212.640395 78.1555263 210.198553 87.9477632 229.263158 87.9477632 231.617368 78.5178947 246.686447 78.5178947 236.536579 119.223947 187.325526 119.223947 190.223289 107.619868 224.352237 107.619868 226.366579 99.5518421 192.229342 99.5518421 192.230526 99.5494737"></polyline>
                    <polyline id="Fill-7" fill="#5FA0B2" points="78.1022368 77.5705263 90.0805263 90.4606579 0.403815789 89.8803947 68.2282895 79.1478947 78.1022368 77.5705263"></polyline>
                    <polyline id="Fill-8" fill="#706BA3" points="90.0805263 90.4606579 78.1022368 102.465 69.6375 101.083026 0.403815789 89.8803947 90.0805263 90.4606579"></polyline>
                    <polyline id="Fill-9" fill="#CBCCCB" points="88.9555263 90.4535526 0.403815789 89.8803947 68.2282895 79.1478947 78.1022368 77.5705263 88.9555263 89.2515789 88.9555263 90.4535526"></polyline>
                    <polyline id="Fill-10" fill="#98AAC6" points="88.9555263 90.4535526 0.403815789 89.8803947 88.9555263 90.4535526"></polyline>
                    <polyline id="Fill-11" fill="#072859" points="78.1022368 102.465 69.6375 101.083026 0.403815789 89.8803947 88.9555263 90.4535526 88.9555263 91.5868421 78.1022368 102.465"></polyline>
                    <polyline id="Fill-12" fill="#E4E4E3" points="28.9681579 85.3602632 0.403815789 89.8803947 69.7689474 90.3292105 28.9681579 85.3602632"></polyline>
                    <path d="M79.1538158,69.6896053 L78.1022368,77.5705263 L54.6738158,53.2018421 C57.4946053,55.5525 78.9596053,69.6588158 78.9596053,69.6588158 L79.1538158,69.6896053" id="Fill-13" fill="#5FA0B2"></path>
                    <polyline id="Fill-14" fill="#5FA0B2" points="78.1022368 102.465 52.5161842 124.124211 69.6375 101.138684 69.6375 101.083026 78.1022368 102.465"></polyline>
                    <polyline id="Fill-15" fill="#FFFFFF" points="124.571842 125.313158 124.848947 125.701579 100.287237 110.984211 101.614737 103.378026 124.571842 125.313158"></polyline>
                    <polyline id="Fill-16" fill="#CBCCCB" points="108.807632 101.8575 101.614737 103.378026 90.3280263 90.2392105 179.2575 86.8926316 108.807632 101.8575"></polyline>
                    <polyline id="Fill-17" fill="#FFFFFF" points="171.659605 87.8352632 91.7123684 90.8443421 101.859868 102.655658 171.659605 87.8352632"></polyline>
                    <path d="M124.157368,52.7861842 L124.186974,52.7861842 C122.665263,55.5252632 110.2725,77.8192105 110.741447,77.8192105 L110.741447,77.8464474 L101.752105,76.6575 L124.157368,52.7861842" id="Fill-18" fill="#FFFFFF"></path>
                    <polyline id="Fill-19" fill="#FFFFFF" points="100.423421 69.8802632 101.614737 76.6302632 90.0805263 90.4606579 88.2544737 0.5625 100.423421 69.8802632"></polyline>
                    <polyline id="Fill-20" fill="#CBCCCB" points="88.8821053 31.4739474 88.2544737 0.5625 100.149868 68.3194737 88.8821053 31.4739474"></polyline>
                    <polyline id="Fill-21" fill="#072859" points="101.752105 76.6575 110.741447 77.8464474 179.2575 86.8926316 90.3280263 90.2392105 101.614737 76.6302632 101.752105 76.6575"></polyline>
                    <polyline id="Fill-22" fill="#072859" points="108.807632 101.8575 124.571842 125.313158 101.614737 103.378026 108.807632 101.8575"></polyline>
                    <path d="M100.508684,69.8530263 L124.352763,52.5114474 C124.352763,52.5114474 124.297105,52.5919737 124.185789,52.7861842 L124.157368,52.7861842 L101.752105,76.6575 L101.614737,76.6302632 L100.423421,69.8802632 L100.508684,69.8530263" id="Fill-23" fill="#072859"></path>
                    <polyline id="Fill-24" fill="#072859" points="100.287237 110.984211 88.2544737 179.446974 90.0805263 90.4606579 101.614737 103.378026 100.287237 110.984211"></polyline>
                    <polyline id="Fill-25" fill="#706BA3" points="78.1022368 102.465 79.2367105 111.039868 52.5161842 124.124211 78.1022368 102.465"></polyline>
                    <path d="M54.6738158,53.2018421 L78.1022368,77.5705263 L68.2282895,79.1478947 L68.1998684,78.9536842 C68.1998684,78.9536842 56.8030263,56.8811842 54.6738158,53.2018421" id="Fill-26" fill="#706BA3"></path>
                    <path d="M78.1022368,77.5705263 L54.6738158,53.2018421 C57.4946053,55.5525 78.9596053,69.6588158 78.9596053,69.6588158 L79.1538158,69.6896053 L78.1022368,77.5705263" id="Fill-27" fill="#FFFFFF"></path>
                    <polyline id="Fill-28" fill="#FFFFFF" points="88.2994737 89.7927632 88.2994737 89.5085526 77.8606579 78.2739474 68.3313158 79.7968421 8.42092105 89.2764474 88.2994737 89.7927632"></polyline>
                    <polyline id="Fill-29" fill="#FFFFFF" points="88.2544737 179.446974 78.1022368 102.465 88.9555263 91.5880263 88.9555263 145.230395 88.2544737 179.446974"></polyline>
                    <polyline id="Fill-30" fill="#FFFFFF" points="52.5161842 124.124211 69.6375 101.138684 69.6375 101.083026 78.1022368 102.465 52.5161842 124.124211"></polyline>
                    <polyline id="Fill-31" fill="#87CDD0" points="88.9555263 89.2515789 88.9555263 89.2515789 78.1022368 77.5705263 88.9555263 89.2515789"></polyline>
                    <polyline id="Fill-32" fill="#072859" points="88.9555263 89.2515789 78.1022368 77.5705263 79.1538158 69.6896053 88.2544737 0.5625 88.9555263 35.1296053 88.9555263 89.2515789"></polyline>
                    <polyline id="Fill-33" fill="#87CDD0" points="78.1022368 102.465 78.1022368 102.465 88.9555263 91.5868421 88.9555263 91.5880263 78.1022368 102.465"></polyline>
                    <polyline id="Fill-34" fill="#072859" points="52.5161842 124.124211 78.1022368 102.465 79.2367105 111.039868 52.5161842 124.124211"></polyline>
                    <path d="M68.2282895,79.1478947 L68.1998684,78.9536842 C68.1998684,78.9536842 56.8030263,56.8811842 54.6738158,53.2018421 L78.1022368,77.5705263 L68.2282895,79.1478947" id="Fill-35" fill="#072859"></path>
                    <path d="M75.3773684,90.4606579 C75.3773684,82.3405263 81.9592105,75.7575 90.0805263,75.7575 C98.2006579,75.7575 104.783684,82.3405263 104.783684,90.4606579 C104.783684,98.5819737 98.2006579,105.165 90.0805263,105.165 C81.9592105,105.165 75.3773684,98.5819737 75.3773684,90.4606579" id="Fill-36" fill="#651C1E"></path>
                    <path d="M80.73,88.5043421 L99.4322368,88.5043421 L99.4322368,87.3473684 L80.73,87.3473684 L80.73,88.5043421 Z M94.1707895,94.0653947 C94.4822368,93.4803947 95.0992105,93.0813158 95.8085526,93.0813158 C96.8328947,93.0813158 97.6630263,93.9114474 97.6630263,94.9357895 L97.6630263,91.8982895 L94.1707895,91.8982895 L94.1707895,94.0653947 L94.1707895,94.0653947 Z M97.6630263,94.9476316 L97.6630263,94.9357895 L97.6630263,94.9476316 L97.6630263,94.9476316 Z M92.4027632,92.1078947 C92.4027632,90.8242105 91.3630263,89.7844737 90.0805263,89.7844737 C88.7968421,89.7844737 87.7582895,90.8242105 87.7582895,92.1078947 L87.7582895,100.295526 L86.1418421,100.295526 L86.1418421,91.7372368 L82.3452632,91.7372368 L82.3452632,100.295526 L80.73,100.295526 L80.73,91.7372368 L80.4043421,91.7372368 C80.1355263,91.7372368 79.9164474,91.5181579 79.9164474,91.2493421 L79.9164474,91.2090789 C79.9164474,90.9402632 80.1355263,90.7211842 80.4043421,90.7211842 L87.7582895,90.7211842 L87.7582895,90.7282895 C88.2035526,89.9028947 89.0763158,89.3415789 90.0805263,89.3415789 C91.0847368,89.3415789 91.9563158,89.9028947 92.4027632,90.7282895 L92.4027632,90.7211842 L99.7555263,90.7211842 C100.024342,90.7211842 100.243421,90.9402632 100.243421,91.2090789 L100.243421,91.2493421 C100.243421,91.5181579 100.024342,91.7372368 99.7555263,91.7372368 L99.4310526,91.7372368 L99.4310526,100.295526 L97.8146053,100.295526 L97.8146053,91.7372368 L94.0180263,91.7372368 L94.0180263,100.295526 L92.4027632,100.295526 L92.4027632,92.1078947 L92.4027632,92.1078947 Z M87.7582895,92.1221053 L87.7582895,92.1078947 L87.7582895,92.1221053 L87.7582895,92.1221053 Z M85.9902632,94.0653947 C85.6776316,93.4803947 85.0618421,93.0813158 84.3525,93.0813158 C83.3281579,93.0813158 82.4980263,93.9114474 82.4980263,94.9357895 L82.4980263,91.8982895 L85.9902632,91.8982895 L85.9902632,94.0653947 L85.9902632,94.0653947 Z M82.4980263,94.9476316 L82.4980263,94.9357895 L82.4980263,94.9476316 L82.4980263,94.9476316 Z M94.8765789,82.2043421 C94.8765789,81.7969737 94.5461842,81.4653947 94.1376316,81.4653947 C93.7290789,81.4653947 93.3986842,81.7969737 93.3986842,82.2043421 L93.3986842,86.1477632 L94.8765789,86.1477632 L94.8765789,82.2043421 L94.8765789,82.2043421 Z M93.3986842,82.2090789 L93.3986842,82.2043421 L93.3986842,82.2090789 L93.3986842,82.2090789 Z M92.8480263,82.2043421 C92.8480263,81.7969737 92.5164474,81.4653947 92.1090789,81.4653947 C91.7005263,81.4653947 91.3701316,81.7969737 91.3701316,82.2043421 L91.3701316,86.1477632 L92.8480263,86.1477632 L92.8480263,82.2043421 L92.8480263,82.2043421 Z M91.3701316,82.2090789 L91.3701316,82.2043421 L91.3701316,82.2090789 L91.3701316,82.2090789 Z M90.8194737,82.2043421 C90.8194737,81.7969737 90.4890789,81.4653947 90.0805263,81.4653947 C89.6719737,81.4653947 89.3415789,81.7969737 89.3415789,82.2043421 L89.3415789,86.1477632 L90.8194737,86.1477632 L90.8194737,82.2043421 L90.8194737,82.2043421 Z M89.3415789,82.2090789 L89.3415789,82.2043421 L89.3415789,82.2090789 L89.3415789,82.2090789 Z M86.7623684,82.2043421 C86.7623684,81.7969737 86.4319737,81.4653947 86.0234211,81.4653947 C85.6148684,81.4653947 85.2844737,81.7969737 85.2844737,82.2043421 L85.2844737,86.1477632 L86.7623684,86.1477632 L86.7623684,82.2043421 L86.7623684,82.2043421 Z M85.2844737,82.2090789 L85.2844737,82.2043421 L85.2844737,82.2090789 L85.2844737,82.2090789 Z M88.7909211,82.2043421 C88.7909211,81.7969737 88.4593421,81.4653947 88.0519737,81.4653947 C87.6434211,81.4653947 87.3130263,81.7969737 87.3130263,82.2043421 L87.3130263,86.1477632 L88.7909211,86.1477632 L88.7909211,82.2043421 L88.7909211,82.2043421 Z M87.3130263,82.2090789 L87.3130263,82.2043421 L87.3130263,82.2090789 L87.3130263,82.2090789 Z M96.1022368,81.2771053 L96.1022368,86.1477632 L99.7555263,86.1477632 C100.024342,86.1477632 100.243421,86.3668421 100.243421,86.6356579 L100.243421,86.6759211 C100.243421,86.9447368 100.024342,87.1638158 99.7555263,87.1638158 L80.4043421,87.1638158 C80.1355263,87.1638158 79.9164474,86.9447368 79.9164474,86.6759211 L79.9164474,86.6356579 C79.9164474,86.3668421 80.1355263,86.1477632 80.4043421,86.1477632 L84.0588158,86.1477632 L84.0588158,81.2771053 L83.8882895,81.2771053 C83.7153947,81.2771053 83.5756579,81.1373684 83.5756579,80.9656579 L83.5756579,80.9396053 C83.5756579,80.7678947 83.7153947,80.6269737 83.8882895,80.6269737 L96.2727632,80.6269737 C96.4444737,80.6269737 96.5842105,80.7678947 96.5842105,80.9396053 L96.5842105,80.9656579 C96.5842105,81.1373684 96.4444737,81.2771053 96.2727632,81.2771053 L96.1022368,81.2771053 L96.1022368,81.2771053 Z M80.73,89.8638158 L88.245,89.8638158 C88.0176316,90.0603947 87.8210526,90.2948684 87.6647368,90.5613158 L80.73,90.5613158 L80.73,89.8638158 L80.73,89.8638158 Z M91.9148684,89.8638158 L99.4310526,89.8638158 L99.4310526,90.5613158 L92.4963158,90.5613158 C92.3388158,90.2948684 92.1422368,90.0603947 91.9148684,89.8638158 L91.9148684,89.8638158 Z M80.4043421,88.6878947 L99.7555263,88.6878947 C100.024342,88.6878947 100.243421,88.9069737 100.243421,89.1757895 L100.243421,89.2172368 C100.243421,89.4848684 100.024342,89.7039474 99.7555263,89.7039474 L91.7135526,89.7039474 C91.2469737,89.3688158 90.6785526,89.1793421 90.0805263,89.1793421 C89.4825,89.1793421 88.9140789,89.3688158 88.4475,89.7039474 L80.4043421,89.7039474 C80.1355263,89.7039474 79.9164474,89.4848684 79.9164474,89.2172368 L79.9164474,89.1757895 C79.9164474,88.9069737 80.1355263,88.6878947 80.4043421,88.6878947 L80.4043421,88.6878947 Z" id="Fill-37" fill="#FFFFFF"></path>
                    <polyline id="Fill-38" fill="#CBCCCB" points="88.8643421 149.730395 88.2544737 179.446974 79.4522368 112.678816 88.8643421 149.730395"></polyline>
                    <polyline id="Fill-39" fill="#CBCCCB" points="142.036579 94.7984211 116.9325 89.2373684 179.2575 86.8926316 142.036579 94.7984211"></polyline>
                    <polyline id="Fill-40" fill="#CBCCCB" points="62.8046053 58.9061842 54.6738158 53.2018421 72.1930263 71.4232895 62.8046053 58.9061842"></polyline>
                    <polyline id="Fill-41" fill="#CBCCCB" points="117.659605 59.7090789 124.351579 52.5114474 112.100921 74.9226316 117.659605 59.7090789"></polyline>
                    <polyline id="Fill-42" fill="#CBCCCB" points="60.6173684 117.266447 52.7163158 123.856579 68.3846053 102.822632 60.6173684 117.266447"></polyline>
                    <polyline id="Fill-43" fill="#CBCCCB" points="114.866053 119.720132 124.848947 125.701579 104.966053 106.580132 114.866053 119.720132"></polyline>
                    <path d="M375.194605,44.3640789 L382.630263,44.3640789 L382.573421,44.91 L382.631447,45.4855263 L382.466842,45.4677632 C382.035789,45.4203947 381.602368,45.3872368 381.168947,45.3564474 C380.681053,45.3221053 380.191974,45.3043421 379.702895,45.3019737 L379.702895,54.1894737 L378.960395,54.1207895 L378.208421,54.1728947 L378.208421,45.3007895 C377.743026,45.3007895 377.266974,45.3007895 376.803947,45.3292105 C376.306579,45.3588158 375.802105,45.4144737 375.305921,45.4677632 L375.141316,45.4855263 L375.199342,44.9230263 L375.151974,44.4457895 L375.089211,44.5618421 C374.240132,46.1486842 373.386316,47.7355263 372.553816,49.3330263 C372.054079,50.2934211 371.563816,51.2668421 371.122105,52.2556579 C370.859211,52.8442105 370.609342,53.46 370.432895,54.0793421 L370.400921,54.1894737 L369.834868,54.1207895 L368.940789,54.2013158 L369.09,53.9703947 C369.557763,53.2444737 369.962763,52.4771053 370.319211,51.6907895 C369.891711,50.9459211 369.459474,50.2022368 369.017763,49.4644737 C368.551184,48.6864474 368.085789,47.9036842 367.597895,47.1386842 C367.051974,46.2813158 366.5025,45.4263158 365.954211,44.5701316 L365.814474,44.3510526 L366.927632,44.4055263 L367.737632,44.3581579 L367.776711,44.4386842 C368.317895,45.5494737 368.899342,46.6401316 369.526974,47.7047368 C370.026711,48.5514474 370.5525,49.3851316 371.110263,50.1939474 C371.421711,49.6006579 371.734342,49.0073684 372.036316,48.4081579 C372.377368,47.7331579 372.703026,47.0486842 373.023947,46.3642105 C373.321184,45.7330263 373.6125,45.0947368 373.871842,44.4481579 L373.908553,44.3557895 L374.463947,44.4055263 L375.205263,44.3439474 L375.194605,44.3640789 L375.194605,44.3640789 Z M186.200526,53.5061842 C185.755263,53.8069737 185.257895,54.0071053 184.734474,54.1278947 C184.180263,54.2546053 183.614211,54.3161842 183.045789,54.3161842 C181.651974,54.3161842 180.343421,53.9455263 179.354605,52.9271053 C178.368158,51.9086842 178.006974,50.5942105 178.006974,49.2003947 C178.006974,47.7378947 178.465263,46.4482895 179.571316,45.4689474 C180.644211,44.5168421 181.978816,44.1544737 183.393947,44.1544737 C183.912632,44.1544737 184.427763,44.2160526 184.934605,44.325 C185.452105,44.4363158 185.957763,44.5973684 186.443289,44.8069737 L186.562895,44.8590789 L186.514342,44.9798684 C186.449211,45.1432895 186.398289,45.3173684 186.353289,45.4867105 C186.305921,45.6643421 186.262105,45.8455263 186.230132,46.0267105 L186.213553,46.1214474 L185.941184,46.1605263 L185.893816,46.1001316 C185.765921,45.9355263 185.548026,45.7732895 185.378684,45.6525 C184.77,45.2190789 184.091447,44.9526316 183.338289,44.9526316 C182.216842,44.9526316 181.270658,45.3327632 180.574342,46.2244737 C179.888684,47.1019737 179.641184,48.1653947 179.641184,49.2631579 C179.641184,50.3881579 179.891053,51.4965789 180.639474,52.3669737 C181.322763,53.1603947 182.200263,53.5180263 183.241184,53.5180263 C183.756316,53.5180263 184.259605,53.4090789 184.740395,53.2278947 C185.241316,53.0384211 185.701974,52.7719737 186.108158,52.4226316 L186.355658,52.2082895 L186.253816,53.4694737 L186.200526,53.5061842 L186.200526,53.5061842 Z M190.101316,45.3007895 C189.635921,45.3007895 189.159868,45.3007895 188.698026,45.3292105 C188.199474,45.3588158 187.695,45.4144737 187.198816,45.4677632 L187.034211,45.4855263 L187.093421,44.9230263 L187.035395,44.3640789 L194.523158,44.3640789 L194.466316,44.91 L194.524342,45.4855263 L194.360921,45.4677632 C193.928684,45.4203947 193.495263,45.3872368 193.063026,45.3564474 C192.573947,45.3221053 192.086053,45.3043421 191.596974,45.3019737 L191.596974,54.1894737 L190.853289,54.1207895 L190.101316,54.1728947 L190.101316,45.3007895 L190.101316,45.3007895 Z M199.288421,50.4011842 L195.928816,50.4011842 C195.636316,51.1247368 195.315395,51.8778947 195.057237,52.6132895 C194.879605,53.0881579 194.729211,53.5796053 194.587105,54.0663158 L194.556316,54.1717105 L193.948816,54.1207895 L193.239474,54.1823684 L197.715789,44.1544737 L198.211974,44.1544737 L202.513026,54.1930263 L201.581053,54.1207895 L200.746184,54.1681579 L200.713026,54.0734211 C200.443026,53.3013158 200.167105,52.5256579 199.865132,51.7653947 C199.682763,51.3071053 199.486184,50.8535526 199.288421,50.4011842 L199.288421,50.4011842 Z M208.006579,48.8072368 C208.397368,48.8806579 208.768026,49.0263158 209.109079,49.2596053 C209.741447,49.6930263 210.044605,50.3076316 210.044605,51.0726316 C210.044605,52.1230263 209.594605,52.9436842 208.733684,53.5405263 C208.302632,53.8377632 207.780395,53.9834211 207.266447,54.0509211 C206.764342,54.1160526 206.223158,54.1207895 205.716316,54.1207895 L203.519605,54.1207895 L203.519605,44.3640789 L206.455263,44.3640789 C207.208421,44.3640789 208.207895,44.4303947 208.876974,44.8128947 C209.477368,45.1586842 209.696447,45.7472368 209.696447,46.4186842 C209.696447,47.0628947 209.484474,47.6242105 209.039211,48.0907895 C208.739605,48.4034211 208.391447,48.6378947 208.006579,48.8072368 L208.006579,48.8072368 Z M213.2775,49.7960526 L213.2775,54.1894737 L212.533816,54.1207895 L211.783026,54.1728947 L211.783026,44.3640789 L214.411974,44.3640789 C215.250395,44.3640789 216.570789,44.4185526 217.297895,44.8875 C217.951579,45.3067105 218.139868,46.0456579 218.139868,46.7834211 C218.139868,47.5531579 217.925526,48.2660526 217.344079,48.7918421 C216.747237,49.3306579 215.822368,49.6030263 215.055,49.7569737 C214.890395,49.7948684 214.710395,49.8078947 214.543421,49.8161842 C214.426184,49.8209211 214.305395,49.8292105 214.188158,49.8292105 C213.996316,49.8292105 213.802105,49.8268421 213.609079,49.815 C213.498947,49.8090789 213.388816,49.8031579 213.2775,49.7960526 L213.2775,49.7960526 Z M219.112105,49.2560526 C219.112105,47.8018421 219.573947,46.5252632 220.645658,45.5257895 C221.690132,44.5523684 222.985658,44.1544737 224.401974,44.1544737 C225.747237,44.1544737 227.034474,44.4730263 228.107368,45.3090789 C229.309342,46.2469737 229.817368,47.5389474 229.817368,49.0476316 C229.817368,50.5219737 229.373289,51.8388158 228.298026,52.8667105 C227.215658,53.9028947 225.856184,54.3161842 224.373553,54.3161842 C222.944211,54.3161842 221.601316,53.9419737 220.553289,52.9365789 C219.523026,51.9477632 219.112105,50.6688158 219.112105,49.2560526 L219.112105,49.2560526 Z M238.479868,45.3268421 L235.689868,45.2865789 L232.882105,45.3268421 L232.882105,54.1894737 L232.138421,54.1207895 L231.387632,54.1728947 L231.387632,44.3640789 L239.974342,44.3640789 L239.974342,54.1894737 L239.230658,54.1207895 L238.479868,54.1728947 L238.479868,45.3268421 L238.479868,45.3268421 Z M241.558816,49.2560526 C241.558816,47.8018421 242.021842,46.5252632 243.092368,45.5257895 C244.138026,44.5523684 245.433553,44.1544737 246.849868,44.1544737 C248.193947,44.1544737 249.481184,44.4730263 250.555263,45.3090789 C251.757237,46.2469737 252.264079,47.5389474 252.264079,49.0476316 C252.264079,50.5219737 251.821184,51.8388158 250.745921,52.8667105 C249.663553,53.9028947 248.304079,54.3161842 246.821447,54.3161842 C245.390921,54.3161842 244.049211,53.9419737 243.001184,52.9365789 C241.969737,51.9477632 241.558816,50.6688158 241.558816,49.2560526 L241.558816,49.2560526 Z M256.801974,46.215 C256.190921,47.5957895 255.604737,48.9884211 255.049342,50.3928947 C254.566184,51.6102632 254.103158,52.8406579 253.692237,54.0852632 L253.659079,54.1882895 L253.056316,54.1207895 L252.310263,54.2036842 L252.429868,53.9798684 C252.846711,53.1923684 253.218553,52.3042105 253.582105,51.4894737 C254.178947,50.1513158 254.759211,48.8048684 255.337105,47.4596053 C255.740921,46.5193421 256.250132,45.4286842 256.558026,44.4576316 L256.587632,44.3640789 L257.431974,44.3640789 L257.466316,44.4481579 C257.763553,45.1823684 258.067895,45.9153947 258.371053,46.6484211 C258.967895,48.0907895 259.574211,49.5296053 260.181711,50.9672368 C260.587895,51.9264474 261.017763,53.0478947 261.500921,53.9668421 L261.613421,54.1776316 L260.719342,54.1207895 L259.9425,54.1847368 L256.801974,46.215 L256.801974,46.215 Z M264.108553,48.5443421 L265.241842,48.5443421 C266.105132,48.5443421 267.378158,48.6153947 268.112368,49.1257895 C268.767237,49.5805263 268.970921,50.3230263 268.970921,51.0892105 C268.970921,51.8577632 268.756579,52.5718421 268.173947,53.0976316 C267.578289,53.6364474 266.652237,53.9088158 265.881316,54.0627632 C265.620789,54.1148684 265.266711,54.1160526 265.001447,54.1207895 C264.748026,54.1267105 264.491053,54.135 264.238816,54.135 L263.402763,54.135 L263.019079,54.135 L262.747895,54.135 L262.614079,54.135 L262.614079,44.3546053 L263.356579,44.4055263 L264.108553,44.3546053 L264.108553,48.5443421 L264.108553,48.5443421 Z M278.079868,53.5061842 C277.635789,53.8069737 277.137237,54.0071053 276.613816,54.1278947 C276.059605,54.2546053 275.494737,54.3161842 274.926316,54.3161842 C273.5325,54.3161842 272.222763,53.9455263 271.235132,52.9271053 C270.2475,51.9086842 269.886316,50.5942105 269.886316,49.2003947 C269.886316,47.7378947 270.345789,46.4482895 271.450658,45.4689474 C272.523553,44.5168421 273.858158,44.1544737 275.274474,44.1544737 C275.791974,44.1544737 276.308289,44.2160526 276.813947,44.325 C277.331447,44.4363158 277.837105,44.5973684 278.323816,44.8069737 L278.443421,44.8590789 L278.394868,44.9798684 C278.329737,45.1432895 278.277632,45.3173684 278.232632,45.4867105 C278.185263,45.6643421 278.141447,45.8455263 278.109474,46.0267105 L278.092895,46.1214474 L277.821711,46.1605263 L277.774342,46.1001316 C277.645263,45.9355263 277.427368,45.7732895 277.258026,45.6525 C276.649342,45.2190789 275.970789,44.9526316 275.218816,44.9526316 C274.096184,44.9526316 273.151184,45.3327632 272.453684,46.2244737 C271.768026,47.1019737 271.520526,48.1653947 271.520526,49.2631579 C271.520526,50.3881579 271.771579,51.4965789 272.52,52.3669737 C273.202105,53.1603947 274.079605,53.5180263 275.120526,53.5180263 C275.635658,53.5180263 276.140132,53.4090789 276.619737,53.2278947 C277.120658,53.0384211 277.581316,52.7719737 277.9875,52.4226316 L278.235,52.2082895 L278.134342,53.4694737 L278.079868,53.5061842 L278.079868,53.5061842 Z M282.718421,48.7409211 C283.815,49.9938158 284.915132,51.2419737 286.024737,52.4913158 L287.182895,53.9253947 L287.182895,54.1871053 L286.285263,54.1207895 L285.433816,54.1669737 L285.391184,54.1053947 C285.240789,53.8875 285.085658,53.6731579 284.926974,53.4611842 C284.771842,53.2515789 284.608421,53.0467105 284.437895,52.8477632 L281.414605,49.3081579 C281.409868,49.3046053 281.405132,49.3010526 281.400395,49.2986842 L281.400395,54.1894737 L280.656711,54.1207895 L279.905921,54.1728947 L279.905921,44.3546053 L280.648421,44.4055263 L281.400395,44.3546053 L281.398026,48.6923684 C281.451316,48.6746053 281.499868,48.6438158 281.543684,48.6094737 C281.697632,48.4839474 281.851579,48.3288158 281.993684,48.1926316 C282.080132,48.105 282.168947,48.0221053 282.257763,47.9427632 L285.7275,44.3593421 L286.335,44.4055263 L287.244474,44.3392105 L282.718421,48.7409211 L282.718421,48.7409211 Z M287.235,49.2560526 C287.235,47.8018421 287.696842,46.5252632 288.768553,45.5257895 C289.813026,44.5523684 291.108553,44.1544737 292.524868,44.1544737 C293.868947,44.1544737 295.156184,44.4730263 296.229079,45.3090789 C297.432237,46.2469737 297.940263,47.5389474 297.940263,49.0476316 C297.940263,50.5219737 297.496184,51.8388158 296.420921,52.8667105 C295.338553,53.9028947 293.979079,54.3161842 292.496447,54.3161842 C291.067105,54.3161842 289.724211,53.9419737 288.676184,52.9365789 C287.644737,51.9477632 287.235,50.6688158 287.235,49.2560526 L287.235,49.2560526 Z M300.990789,48.5159211 L303.016974,48.5159211 C303.247895,48.5159211 303.481184,48.5028947 303.712105,48.4886842 C303.888553,48.4768421 304.079211,48.4602632 304.256842,48.4602632 L304.407237,48.4602632 L304.349211,48.9505263 L304.406053,49.4810526 L304.256842,49.4810526 C304.022368,49.4810526 303.780789,49.4609211 303.5475,49.4384211 C303.380526,49.4230263 303.182763,49.3981579 303.016974,49.3981579 L300.990789,49.3981579 L300.990789,53.1971053 C301.430132,53.1947368 301.870658,53.1817105 302.308816,53.1698684 C302.662895,53.1603947 303.026447,53.1426316 303.378158,53.1426316 C303.559342,53.1426316 303.755921,53.1426316 303.934737,53.1225 C304.169211,53.0952632 304.407237,53.055 304.639342,53.0182895 L304.811053,52.9910526 L304.753026,53.5618421 L304.808684,54.1207895 L299.496316,54.1207895 L299.496316,44.3640789 L304.725789,44.3640789 L304.668947,44.91 L304.729342,45.5080263 L304.546974,45.4653947 C304.324342,45.4132895 304.099342,45.3635526 303.873158,45.3268421 C303.691974,45.2984211 303.507237,45.2865789 303.323684,45.2865789 L300.990789,45.2865789 L300.990789,48.5159211 L300.990789,48.5159211 Z M311.859474,45.2865789 L311.859474,48.5443421 L313.006974,48.5443421 C313.906974,48.5443421 315.184737,48.6213158 315.959211,49.1328947 C316.6425,49.5840789 316.875789,50.3171053 316.875789,51.1093421 C316.875789,51.9572368 316.598684,52.6985526 315.976974,53.2811842 C315.325658,53.8910526 314.499079,54.1207895 313.620395,54.1207895 L312.226579,54.1207895 L310.498816,54.1207895 L310.365,54.1207895 L310.365,44.3640789 L316.3275,44.3640789 L316.269474,44.5393421 C316.257632,44.5760526 316.251711,44.6364474 316.246974,44.6743421 C316.238684,44.7548684 316.235132,44.8318421 316.233947,44.9064474 L316.294342,45.5080263 L316.111974,45.4653947 C315.889342,45.4132895 315.663158,45.3635526 315.439342,45.3268421 C315.256974,45.2984211 315.072237,45.2865789 314.888684,45.2865789 L311.859474,45.2865789 L311.859474,45.2865789 Z M321.095132,49.3590789 C320.990921,49.3543421 320.879605,49.3555263 320.7825,49.3555263 L320.357368,49.3555263 L320.108684,49.3555263 L320.108684,54.1728947 L319.365,54.1207895 L318.614211,54.1728947 L318.614211,44.3546053 L319.356711,44.4055263 L320.108684,44.3546053 L320.108684,48.3726316 C320.221184,48.3785526 320.340789,48.3761842 320.448553,48.3761842 L320.963684,48.3761842 L321.138947,48.3761842 C321.317763,47.1718421 321.825789,46.1273684 322.764868,45.3292105 C323.721711,44.5156579 324.853816,44.1544737 326.105526,44.1544737 C327.404605,44.1544737 328.627895,44.4825 329.645132,45.3114474 C330.809211,46.26 331.268684,47.5685526 331.268684,49.0476316 C331.268684,50.4982895 330.855395,51.8175 329.822763,52.8572368 C328.805526,53.8827632 327.524211,54.3161842 326.091316,54.3161842 C324.708158,54.3161842 323.4375,53.9301316 322.455789,52.9294737 C321.496579,51.9525 321.116447,50.7031579 321.095132,49.3590789 L321.095132,49.3590789 Z M334.278947,49.7960526 L334.278947,54.1894737 L333.535263,54.1207895 L332.784474,54.1728947 L332.784474,44.3640789 L335.412237,44.3640789 C336.251842,44.3640789 337.572237,44.4185526 338.300526,44.8875 C338.953026,45.3067105 339.1425,46.0456579 339.1425,46.7834211 C339.1425,47.5531579 338.926974,48.2660526 338.345526,48.7918421 C337.748684,49.3306579 336.823816,49.6030263 336.056447,49.7569737 C335.891842,49.7948684 335.711842,49.8078947 335.543684,49.8161842 C335.428816,49.8209211 335.305658,49.8292105 335.189605,49.8292105 C334.997763,49.8292105 334.803553,49.8268421 334.611711,49.815 C334.500395,49.8090789 334.390263,49.8031579 334.278947,49.7960526 L334.278947,49.7960526 Z M340.113553,49.2560526 C340.113553,47.8018421 340.575395,46.5252632 341.647105,45.5257895 C342.692763,44.5523684 343.987105,44.1544737 345.403421,44.1544737 C346.7475,44.1544737 348.035921,44.4730263 349.108816,45.3090789 C350.310789,46.2469737 350.818816,47.5389474 350.818816,49.0476316 C350.818816,50.5219737 350.374737,51.8388158 349.300658,52.8667105 C348.218289,53.9028947 346.857632,54.3161842 345.375,54.3161842 C343.945658,54.3161842 342.602763,53.9419737 341.555921,52.9365789 C340.524474,51.9477632 340.113553,50.6688158 340.113553,49.2560526 L340.113553,49.2560526 Z M363.354868,45.3268421 L360.564868,45.2865789 L357.758289,45.3268421 L357.758289,54.1894737 L357.014605,54.1207895 L356.262632,54.1728947 L356.262632,44.3640789 L364.850526,44.3640789 L364.850526,54.1894737 L364.105658,54.1207895 L363.354868,54.1728947 L363.354868,45.3268421 L363.354868,45.3268421 Z M385.361053,48.5159211 L387.386053,48.5159211 C387.616974,48.5159211 387.851447,48.5028947 388.081184,48.4886842 C388.257632,48.4768421 388.449474,48.4602632 388.625921,48.4602632 L388.776316,48.4602632 L388.718289,48.9505263 L388.775132,49.4810526 L388.625921,49.4810526 C388.391447,49.4810526 388.151053,49.4609211 387.917763,49.4384211 C387.750789,49.4230263 387.553026,49.3981579 387.386053,49.3981579 L385.361053,49.3981579 L385.361053,53.1971053 C385.799211,53.1947368 386.240921,53.1817105 386.679079,53.1698684 C387.031974,53.1603947 387.395526,53.1426316 387.748421,53.1426316 C387.928421,53.1426316 388.125,53.1426316 388.303816,53.1225 C388.538289,53.0952632 388.776316,53.055 389.009605,53.0182895 L389.181316,52.9910526 L389.122105,53.5618421 L389.178947,54.1207895 L383.865395,54.1207895 L383.865395,44.3640789 L389.094868,44.3640789 L389.038026,44.91 L389.099605,45.5080263 L388.916053,45.4653947 C388.694605,45.4132895 388.468421,45.3635526 388.243421,45.3268421 C388.061053,45.2984211 387.876316,45.2865789 387.692763,45.2865789 L385.361053,45.2865789 L385.361053,48.5159211 L385.361053,48.5159211 Z M395.166316,53.1592105 L395.166316,44.3131579 L395.915921,44.3640789 C396.101842,44.3640789 396.317368,44.3605263 396.499737,44.325 L396.660789,44.2930263 L396.660789,53.1592105 L398.112632,53.1982895 L399.485132,53.1603947 L399.485132,44.3131579 L400.228816,44.3640789 L400.980789,44.3131579 L400.980789,54.1207895 L390.846316,54.1207895 L390.846316,44.3131579 L391.59,44.3640789 L392.341974,44.3131579 L392.341974,53.1603947 L393.709737,53.1982895 L395.166316,53.1592105 L395.166316,53.1592105 Z M404.714605,48.5159211 L406.739605,48.5159211 C406.970526,48.5159211 407.203816,48.5028947 407.434737,48.4886842 C407.612368,48.4768421 407.803026,48.4602632 407.979474,48.4602632 L408.131053,48.4602632 L408.071842,48.9505263 L408.128684,49.4810526 L407.979474,49.4810526 C407.746184,49.4810526 407.504605,49.4609211 407.271316,49.4384211 C407.104342,49.4230263 406.906579,49.3981579 406.739605,49.3981579 L404.714605,49.3981579 L404.714605,53.1971053 C405.152763,53.1947368 405.594474,53.1817105 406.032632,53.1698684 C406.385526,53.1603947 406.749079,53.1426316 407.101974,53.1426316 C407.281974,53.1426316 407.479737,53.1426316 407.657368,53.1225 C407.891842,53.0952632 408.129868,53.055 408.363158,53.0182895 L408.534868,52.9910526 L408.475658,53.5618421 L408.5325,54.1207895 L403.220132,54.1207895 L403.220132,44.3640789 L408.448421,44.3640789 L408.391579,44.91 L408.453158,45.5080263 L408.269605,45.4653947 C408.048158,45.4132895 407.821974,45.3635526 407.596974,45.3268421 C407.414605,45.2984211 407.231053,45.2865789 407.046316,45.2865789 L404.714605,45.2865789 L404.714605,48.5159211 L404.714605,48.5159211 Z M417.669868,53.5061842 C417.223421,53.8069737 416.726053,54.0071053 416.202632,54.1278947 C415.648421,54.2546053 415.083553,54.3161842 414.515132,54.3161842 C413.121316,54.3161842 411.811579,53.9455263 410.823947,52.9271053 C409.836316,51.9086842 409.475132,50.5942105 409.475132,49.2003947 C409.475132,47.7378947 409.934605,46.4482895 411.040658,45.4689474 C412.113553,44.5168421 413.448158,44.1544737 414.863289,44.1544737 C415.380789,44.1544737 415.897105,44.2160526 416.403947,44.325 C416.920263,44.4363158 417.425921,44.5973684 417.911447,44.8069737 L418.032237,44.8590789 L417.983684,44.9798684 C417.918553,45.1432895 417.866447,45.3173684 417.821447,45.4867105 C417.774079,45.6643421 417.730263,45.8455263 417.698289,46.0267105 L417.681711,46.1214474 L417.410526,46.1605263 L417.363158,46.1001316 C417.234079,45.9355263 417.016184,45.7732895 416.848026,45.6525 C416.238158,45.2190789 415.560789,44.9526316 414.807632,44.9526316 C413.685,44.9526316 412.74,45.3327632 412.0425,46.2244737 C411.356842,47.1019737 411.109342,48.1653947 411.109342,49.2631579 C411.109342,50.3881579 411.360395,51.4965789 412.108816,52.3669737 C412.790921,53.1603947 413.668421,53.5180263 414.710526,53.5180263 C415.224474,53.5180263 415.728947,53.4090789 416.209737,53.2278947 C416.709474,53.0384211 417.170132,52.7719737 417.576316,52.4226316 L417.823816,52.2082895 L417.723158,53.4694737 L417.669868,53.5061842 L417.669868,53.5061842 Z M421.570658,45.3007895 C421.105263,45.3007895 420.629211,45.3007895 420.166184,45.3292105 C419.667632,45.3588158 419.164342,45.4144737 418.666974,45.4677632 L418.503553,45.4855263 L418.561579,44.9230263 L418.504737,44.3640789 L425.991316,44.3640789 L425.934474,44.91 L425.993684,45.4855263 L425.829079,45.4677632 C425.398026,45.4203947 424.963421,45.3872368 424.531184,45.3564474 C424.043289,45.3221053 423.554211,45.3043421 423.065132,45.3019737 L423.065132,54.1894737 L422.321447,54.1207895 L421.570658,54.1728947 L421.570658,45.3007895 L421.570658,45.3007895 Z M431.727632,48.8072368 C432.119605,48.8806579 432.489079,49.0263158 432.830132,49.2596053 C433.463684,49.6930263 433.765658,50.3076316 433.765658,51.0726316 C433.765658,52.1230263 433.315658,52.9436842 432.454737,53.5405263 C432.024868,53.8377632 431.501447,53.9834211 430.988684,54.0509211 C430.485395,54.1160526 429.944211,54.1207895 429.438553,54.1207895 L427.241842,54.1207895 L427.241842,44.3640789 L430.176316,44.3640789 C430.930658,44.3640789 431.930132,44.4303947 432.598026,44.8128947 C433.198421,45.1586842 433.4175,45.7472368 433.4175,46.4186842 C433.4175,47.0628947 433.206711,47.6242105 432.760263,48.0907895 C432.460658,48.4034211 432.1125,48.6378947 431.727632,48.8072368 L431.727632,48.8072368 Z M436.999737,51.5960526 C437.135921,51.4634211 437.292237,51.2763158 437.407105,51.1519737 C437.788421,50.7339474 438.168553,50.3159211 438.548684,49.8978947 C438.963158,49.4431579 439.370526,48.9848684 439.773158,48.5206579 C440.282368,47.9332895 440.785658,47.3447368 441.287763,46.7573684 C441.692763,46.2138158 442.205526,45.6489474 442.641316,45.1231579 C442.718289,45.0296053 443.215658,44.3640789 443.343553,44.3640789 L444.091974,44.3640789 L444.091974,54.1894737 L443.348289,54.1207895 L442.5975,54.1728947 L442.5975,46.6117105 C442.482632,46.7348684 442.370132,46.8592105 442.258816,46.9859211 C441.888158,47.3861842 441.523421,47.7911842 441.158684,48.1973684 C440.670789,48.7385526 440.186447,49.2844737 439.711579,49.8386842 C439.163289,50.4781579 438.611447,51.1164474 438.067895,51.7606579 C437.642763,52.2651316 437.221184,52.7743421 436.810263,53.2906579 C436.624342,53.5215789 436.348421,53.8425 436.200395,54.0959211 L436.161316,54.1634211 L435.504079,54.1634211 L435.504079,44.3261842 L435.672237,44.3676316 C435.729079,44.3830263 435.813158,44.3865789 435.872368,44.3925 C435.999079,44.4019737 436.123421,44.4055263 436.245395,44.4055263 L436.999737,44.3546053 L436.999737,51.5960526 L436.999737,51.5960526 Z M447.84,51.5960526 C447.976184,51.4634211 448.1325,51.2763158 448.247368,51.1519737 C448.628684,50.7339474 449.008816,50.3159211 449.390132,49.8978947 C449.803421,49.4431579 450.210789,48.9848684 450.613421,48.5206579 C451.122632,47.9332895 451.625921,47.3447368 452.128026,46.7573684 C452.534211,46.2138158 453.045789,45.6489474 453.481579,45.1231579 C453.559737,45.0296053 454.055921,44.3640789 454.185,44.3640789 L454.932237,44.3640789 L454.932237,54.1894737 L454.188553,54.1207895 L453.437763,54.1728947 L453.437763,46.6117105 C453.324079,46.7348684 453.210395,46.8592105 453.099079,46.9859211 C452.728421,47.3861842 452.363684,47.7911842 451.998947,48.1973684 C451.511053,48.7385526 451.026711,49.2844737 450.551842,49.8386842 C450.004737,50.4781579 449.451711,51.1164474 448.908158,51.7606579 C448.483026,52.2651316 448.061447,52.7743421 447.650526,53.2906579 C447.464605,53.5215789 447.188684,53.8425 447.040658,54.0959211 L447.002763,54.1634211 L446.345526,54.1634211 L446.345526,44.3261842 L446.5125,44.3676316 C446.569342,44.3830263 446.653421,44.3865789 446.713816,44.3925 C446.839342,44.4019737 446.963684,44.4055263 447.085658,44.4055263 L447.84,44.3546053 L447.84,51.5960526 L447.84,51.5960526 Z M452.954605,42.4657895 C452.759211,42.8956579 452.479737,43.2757895 452.086579,43.5457895 C451.651974,43.8442105 451.158158,43.9768421 450.631184,43.9768421 C450.130263,43.9768421 449.667237,43.8442105 449.262237,43.5446053 C448.885658,43.2651316 448.597895,42.9086842 448.417895,42.4752632 L448.377632,42.3793421 L448.901053,41.9885526 L448.976842,42.1164474 C449.356974,42.7594737 449.933684,43.0401316 450.673816,43.0401316 C451.025526,43.0401316 451.371316,42.9726316 451.680395,42.8009211 C451.977632,42.6375 452.208553,42.4042105 452.383816,42.1152632 L452.457237,41.9956579 L453.001974,42.3627632 L452.954605,42.4657895 L452.954605,42.4657895 Z M197.623421,46.4672368 L196.301842,49.5473684 L198.956842,49.5473684 L197.623421,46.4672368 L197.623421,46.4672368 Z M205.015263,48.5443421 L205.491316,48.5443421 C205.811053,48.5443421 206.141447,48.5360526 206.458816,48.4957895 C206.720526,48.4638158 206.972763,48.3832895 207.213158,48.2767105 C207.890526,47.9771053 208.201974,47.4572368 208.201974,46.7206579 C208.201974,46.2493421 208.083553,45.7886842 207.666711,45.5210526 C207.200132,45.2226316 206.516842,45.1622368 205.976842,45.1622368 L205.015263,45.1622368 L205.015263,48.5443421 L205.015263,48.5443421 Z M205.015263,53.3238158 L206.274079,53.3238158 C206.870921,53.3238158 207.423947,53.1663158 207.869211,52.7589474 C208.296711,52.3681579 208.480263,51.8731579 208.480263,51.2976316 C208.480263,50.6664474 208.294342,50.1003947 207.735395,49.7534211 C207.181184,49.41 206.367632,49.3413158 205.730526,49.3413158 L205.015263,49.3413158 L205.015263,53.3238158 L205.015263,53.3238158 Z M213.2775,48.9896053 C213.361579,48.9931579 213.464605,48.9896053 213.534474,48.9907895 C213.617368,49.0002632 213.701447,49.0038158 213.784342,49.0038158 L214.062632,49.0038158 C214.137237,49.0038158 214.205921,49.0038158 214.269868,49.005 C214.350395,48.9919737 214.436842,48.9753947 214.513816,48.9765789 C215.091711,48.9221053 215.634079,48.7338158 216.041447,48.3075 C216.4275,47.9025 216.589737,47.4075 216.589737,46.8532895 C216.589737,46.4518421 216.509211,46.0456579 216.255789,45.7235526 C216.050921,45.4618421 215.785658,45.2427632 215.443421,45.2096053 C215.188816,45.1847368 214.924737,45.1622368 214.668947,45.1622368 L214.216579,45.1622368 L213.644605,45.1622368 L213.2775,45.1622368 L213.2775,48.9896053 L213.2775,48.9896053 Z M227.334079,46.1806579 C227.003684,45.7614474 226.593947,45.4417105 226.108421,45.2190789 C225.612237,44.9917105 225.087632,44.8827632 224.541711,44.8827632 C223.433289,44.8827632 222.48,45.2439474 221.767105,46.1072368 C220.995,47.0427632 220.746316,48.2364474 220.746316,49.4242105 C220.746316,50.5705263 221.011579,51.6978947 221.823947,52.5446053 C222.525,53.2764474 223.409605,53.5878947 224.416184,53.5878947 C225.698684,53.5878947 226.663816,53.0277632 227.354211,51.9525 C227.901316,51.1010526 228.183158,50.1702632 228.183158,49.1589474 C228.183158,48.6094737 228.138158,48.0481579 228.005526,47.5140789 C227.883553,47.0226316 227.646711,46.5785526 227.334079,46.1806579 L227.334079,46.1806579 Z M249.781974,46.1806579 C249.450395,45.7614474 249.041842,45.4417105 248.556316,45.2190789 C248.060132,44.9917105 247.535526,44.8827632 246.988421,44.8827632 C245.88,44.8827632 244.927895,45.2439474 244.213816,46.1072368 C243.441711,47.0427632 243.193026,48.2364474 243.193026,49.4242105 C243.193026,50.5705263 243.458289,51.6978947 244.270658,52.5446053 C244.971711,53.2764474 245.8575,53.5878947 246.862895,53.5878947 C248.145395,53.5878947 249.111711,53.0277632 249.800921,51.9525 C250.348026,51.1010526 250.631053,50.1702632 250.631053,49.1589474 C250.631053,48.6094737 250.586053,48.0481579 250.453421,47.5140789 C250.331447,47.0226316 250.093421,46.5785526 249.781974,46.1806579 L249.781974,46.1806579 Z M264.108553,53.2811842 L265.343684,53.2823684 C265.921579,53.2267105 266.465132,53.0396053 266.8725,52.6121053 C267.258553,52.2082895 267.420789,51.7132895 267.420789,51.1590789 C267.420789,50.7339474 267.337895,50.3052632 267.084474,49.9559211 C266.886711,49.6847368 266.616711,49.4242105 266.267368,49.3898684 C266.015132,49.365 265.753421,49.3413158 265.5,49.3413158 L265.046447,49.3413158 L264.475658,49.3413158 L264.108553,49.3413158 L264.108553,53.2811842 L264.108553,53.2811842 Z M295.456974,46.1806579 C295.125395,45.7614474 294.716842,45.4417105 294.231316,45.2190789 C293.735132,44.9917105 293.209342,44.8827632 292.663421,44.8827632 C291.555,44.8827632 290.602895,45.2439474 289.89,46.1072368 C289.116711,47.0427632 288.869211,48.2364474 288.869211,49.4242105 C288.869211,50.5705263 289.133289,51.6978947 289.945658,52.5446053 C290.646711,53.2764474 291.5325,53.5878947 292.537895,53.5878947 C293.820395,53.5878947 294.785526,53.0277632 295.477105,51.9525 C296.023026,51.1010526 296.304868,50.1702632 296.304868,49.1589474 C296.304868,48.6094737 296.261053,48.0481579 296.128421,47.5140789 C296.006447,47.0226316 295.769605,46.5785526 295.456974,46.1806579 L295.456974,46.1806579 Z M311.859474,53.2953947 L313.118289,53.2953947 C313.726974,53.2953947 314.269342,53.1201316 314.702763,52.6843421 C315.117237,52.2675 315.311447,51.7665789 315.311447,51.1792105 C315.311447,50.7327632 315.190658,50.3253947 314.908816,49.9772368 C314.692105,49.7096053 314.391316,49.4253947 314.031316,49.3898684 C313.780263,49.365 313.518553,49.3413158 313.265132,49.3413158 L312.811579,49.3413158 L312.233684,49.3413158 L311.859474,49.3413158 L311.859474,53.2953947 L311.859474,53.2953947 Z M328.868289,46.1794737 C328.554474,45.7697368 328.167237,45.4452632 327.704211,45.2178947 C327.248289,44.9940789 326.765132,44.8827632 326.258289,44.8827632 C325.200789,44.8827632 324.320921,45.2557895 323.668421,46.0965789 C322.935395,47.0415789 322.713947,48.2542105 322.713947,49.4242105 C322.713947,50.5503947 322.953158,51.6884211 323.725263,52.5481579 C324.364737,53.2622368 325.177105,53.5878947 326.132763,53.5878947 C327.241184,53.5878947 328.097368,53.1071053 328.740395,52.2106579 C329.388158,51.3094737 329.649868,50.2614474 329.649868,49.1589474 C329.649868,48.6082895 329.609605,48.0422368 329.485263,47.5057895 C329.373947,47.0214474 329.157237,46.5785526 328.868289,46.1794737 L328.868289,46.1794737 Z M334.278947,48.9896053 C334.363026,48.9931579 334.466053,48.9896053 334.535921,48.9907895 C334.618816,49.0002632 334.702895,49.0038158 334.785789,49.0038158 L335.064079,49.0038158 C335.138684,49.0038158 335.207368,49.0038158 335.271316,49.005 C335.351842,48.9919737 335.438289,48.9753947 335.515263,48.9765789 C336.093158,48.9221053 336.635526,48.7338158 337.044079,48.3075 C337.428947,47.9025 337.591184,47.4075 337.591184,46.8532895 C337.591184,46.4518421 337.510658,46.0456579 337.257237,45.7235526 C337.052368,45.4618421 336.787105,45.2427632 336.444868,45.2096053 C336.190263,45.1847368 335.926184,45.1622368 335.670395,45.1622368 L335.218026,45.1622368 L334.646053,45.1622368 L334.278947,45.1622368 L334.278947,48.9896053 L334.278947,48.9896053 Z M348.335526,46.1806579 C348.005132,45.7614474 347.595395,45.4417105 347.109868,45.2190789 C346.613684,44.9917105 346.089079,44.8827632 345.543158,44.8827632 C344.434737,44.8827632 343.481447,45.2439474 342.768553,46.1072368 C341.995263,47.0427632 341.747763,48.2364474 341.747763,49.4242105 C341.747763,50.5705263 342.013026,51.6978947 342.825395,52.5446053 C343.526447,53.2764474 344.411053,53.5878947 345.417632,53.5878947 C346.700132,53.5878947 347.665263,53.0277632 348.355658,51.9525 C348.902763,51.1010526 349.184605,50.1702632 349.184605,49.1589474 C349.184605,48.6094737 349.139605,48.0481579 349.006974,47.5140789 C348.885,47.0226316 348.648158,46.5785526 348.335526,46.1806579 L348.335526,46.1806579 Z M428.736316,48.5443421 L429.212368,48.5443421 C429.532105,48.5443421 429.863684,48.5360526 430.181053,48.4957895 C430.441579,48.4638158 430.695,48.3832895 430.935395,48.2767105 C431.612763,47.9771053 431.923026,47.4572368 431.923026,46.7206579 C431.923026,46.2493421 431.804605,45.7886842 431.387763,45.5210526 C430.922368,45.2226316 430.239079,45.1622368 429.697895,45.1622368 L428.736316,45.1622368 L428.736316,48.5443421 L428.736316,48.5443421 Z M428.736316,53.3238158 L429.995132,53.3238158 C430.593158,53.3238158 431.145,53.1663158 431.590263,52.7589474 C432.017763,52.3681579 432.2025,51.8731579 432.2025,51.2976316 C432.2025,50.6664474 432.015395,50.1003947 431.456447,49.7534211 C430.902237,49.41 430.088684,49.3413158 429.451579,49.3413158 L428.736316,49.3413158 L428.736316,53.3238158 L428.736316,53.3238158 Z" id="Fill-44" fill="#072859"></path>
                    <polyline id="Fill-45" fill="#072859" points="274.970132 130.779474 357.969079 130.779474 386.793947 128.683421 246.145263 128.683421 274.970132 130.779474"></polyline>
                    <path d="M274.018026,147.784737 L273.653289,147.731447 L273.289737,147.784737 C273.119211,147.135789 272.869342,146.328158 272.541316,145.364211 C272.213289,144.400263 271.908947,143.571316 271.630658,142.876184 C271.127368,143.867368 270.516316,145.503947 269.7975,147.784737 L269.432763,147.731447 L269.069211,147.784737 C268.250921,145.274211 267.455132,143.116579 266.681842,141.311842 L267.275132,141.366316 L267.868421,141.326053 C268.146711,142.280526 268.408421,143.123684 268.651184,143.854342 C268.938947,144.702237 269.249211,145.531184 269.580789,146.342368 C269.860263,145.746711 270.188289,144.941447 270.566053,143.927763 C270.942632,142.915263 271.244605,142.047237 271.469605,141.326053 L271.820132,141.366316 L272.170658,141.326053 C272.358947,142.062632 272.615921,142.903421 272.939211,143.847237 C273.2625,144.791053 273.582237,145.623553 273.896053,146.342368 C274.256053,145.488553 274.624342,144.589737 275.002105,143.644737 C275.469868,142.475921 275.762368,141.703816 275.878421,141.326053 L276.310658,141.366316 L276.728684,141.326053 C276.620921,141.541579 276.388816,142.040132 276.033553,142.818158 C275.678289,143.597368 275.334868,144.397895 275.002105,145.218553 C274.553289,146.309211 274.224079,147.163026 274.018026,147.784737 L274.018026,147.784737 Z M284.508947,147.784737 L284.145395,147.731447 L283.780658,147.784737 C283.610132,147.135789 283.360263,146.328158 283.033421,145.364211 C282.704211,144.400263 282.401053,143.571316 282.122763,142.876184 C281.618289,143.867368 281.007237,145.503947 280.288421,147.784737 L279.924868,147.731447 L279.560132,147.784737 C278.741842,145.274211 277.946053,143.116579 277.172763,141.311842 L277.767237,141.366316 L278.360526,141.326053 C278.638816,142.280526 278.899342,143.123684 279.142105,143.854342 C279.429868,144.702237 279.740132,145.531184 280.072895,146.342368 C280.351184,145.746711 280.679211,144.941447 281.056974,143.927763 C281.434737,142.915263 281.735526,142.047237 281.960526,141.326053 L282.311053,141.366316 L282.661579,141.326053 C282.849868,142.062632 283.106842,142.903421 283.430132,143.847237 C283.754605,144.791053 284.073158,145.623553 284.388158,146.342368 C284.746974,145.488553 285.116447,144.589737 285.493026,143.644737 C285.961974,142.475921 286.253289,141.703816 286.370526,141.326053 L286.801579,141.366316 L287.219605,141.326053 C287.111842,141.541579 286.880921,142.040132 286.525658,142.818158 C286.170395,143.597368 285.825789,144.397895 285.493026,145.218553 C285.044211,146.309211 284.716184,147.163026 284.508947,147.784737 L284.508947,147.784737 Z M294.999868,147.784737 L294.636316,147.731447 L294.272763,147.784737 C294.102237,147.135789 293.852368,146.328158 293.524342,145.364211 C293.195132,144.400263 292.893158,143.571316 292.613684,142.876184 C292.110395,143.867368 291.499342,145.503947 290.779342,147.784737 L290.415789,147.731447 L290.051053,147.784737 C289.233947,145.274211 288.438158,143.116579 287.664868,141.311842 L288.258158,141.366316 L288.851447,141.326053 C289.129737,142.280526 289.391447,143.123684 289.634211,143.854342 C289.920789,144.702237 290.231053,145.531184 290.563816,146.342368 C290.842105,145.746711 291.171316,144.941447 291.547895,143.927763 C291.925658,142.915263 292.227632,142.047237 292.451447,141.326053 L292.801974,141.366316 L293.153684,141.326053 C293.341974,142.062632 293.597763,142.903421 293.922237,143.847237 C294.245526,144.791053 294.565263,145.623553 294.879079,146.342368 C295.239079,145.488553 295.607368,144.589737 295.985132,143.644737 C296.452895,142.475921 296.744211,141.703816 296.861447,141.326053 L297.293684,141.366316 L297.711711,141.326053 C297.602763,141.541579 297.371842,142.040132 297.016579,142.818158 C296.661316,143.597368 296.317895,144.397895 295.985132,145.218553 C295.535132,146.309211 295.207105,147.163026 294.999868,147.784737 L294.999868,147.784737 Z M298.816579,146.260658 C299.023816,146.260658 299.208553,146.342368 299.369605,146.503421 C299.531842,146.665658 299.612368,146.855132 299.612368,147.070658 C299.612368,147.286184 299.536579,147.474474 299.382632,147.636711 C299.231053,147.798947 299.041579,147.879474 298.816579,147.879474 C298.592763,147.879474 298.398553,147.8025 298.2375,147.649737 C298.075263,147.496974 297.994737,147.303947 297.994737,147.070658 C297.994737,146.855132 298.075263,146.665658 298.2375,146.503421 C298.398553,146.342368 298.592763,146.260658 298.816579,146.260658 L298.816579,146.260658 Z M301.635,146.463158 C301.806711,146.750921 302.031711,146.990132 302.31,147.178421 C302.588289,147.366711 302.880789,147.461447 303.186316,147.461447 C303.527368,147.461447 303.832895,147.344211 304.102895,147.110921 C304.372895,146.877632 304.507895,146.585132 304.507895,146.234605 C304.507895,145.676842 303.977368,145.245789 302.916316,144.939079 C301.855263,144.634737 301.324737,144.0675 301.324737,143.240921 C301.324737,142.610921 301.531974,142.120658 301.945263,141.771316 C302.358553,141.420789 302.885526,141.244342 303.523816,141.244342 C303.837632,141.244342 304.137237,141.283421 304.420263,141.359211 C304.703289,141.436184 304.911711,141.514342 305.046711,141.596053 C304.911711,141.901579 304.803947,142.220132 304.723421,142.552895 L304.601447,142.552895 C304.511447,142.319605 304.359868,142.112368 304.143158,141.932368 C303.927632,141.752368 303.699079,141.663553 303.455132,141.663553 C303.104605,141.663553 302.813289,141.761842 302.578816,141.959605 C302.345526,142.157368 302.228289,142.430921 302.228289,142.782632 C302.228289,143.321447 302.758816,143.761974 303.819868,144.104211 C304.880921,144.445263 305.411447,144.993553 305.411447,145.749079 C305.411447,146.422895 305.146184,146.958158 304.615658,147.353684 C304.147895,147.704211 303.586579,147.879474 302.929342,147.879474 C302.651053,147.879474 302.356184,147.841579 302.045921,147.764605 C301.736842,147.688816 301.469211,147.583421 301.244211,147.448421 C301.298684,147.286184 301.351974,147.122763 301.406447,146.955789 C301.459737,146.79 301.5,146.625395 301.527237,146.463158 L301.635,146.463158 L301.635,146.463158 Z M307.972895,139.568684 L307.972895,141.311842 L309.402237,141.311842 C309.384474,141.438553 309.376184,141.532105 309.376184,141.596053 C309.376184,141.658816 309.384474,141.734605 309.402237,141.824605 L307.972895,141.824605 L307.972895,145.649605 C307.972895,146.200263 308.017895,146.591053 308.107895,146.825526 C308.260658,147.213947 308.548421,147.408158 308.971184,147.408158 C309.069474,147.408158 309.180789,147.393947 309.301579,147.366711 C309.423553,147.340658 309.514737,147.321711 309.5775,147.313421 L309.5775,147.636711 C309.361974,147.717237 309.168947,147.778816 308.998421,147.819079 C308.827895,147.859342 308.643158,147.879474 308.445395,147.879474 C307.905395,147.879474 307.519342,147.735 307.286053,147.448421 C307.024342,147.122763 306.894079,146.560263 306.894079,145.757368 L306.894079,141.824605 L306.058026,141.824605 C306.076974,141.771316 306.085263,141.686053 306.085263,141.568816 C306.085263,141.461053 306.076974,141.375789 306.058026,141.311842 L306.894079,141.311842 L306.894079,139.984342 L307.972895,139.568684 L307.972895,139.568684 Z M315.241579,146.638421 L315.241579,147.030395 C315.268816,147.218684 315.390789,147.313421 315.606316,147.313421 C315.722368,147.313421 315.852632,147.295658 315.997105,147.258947 L315.997105,147.556184 C315.952105,147.573947 315.886974,147.598816 315.804079,147.629605 C315.717632,147.661579 315.624079,147.686447 315.522237,147.704211 C315.419211,147.721974 315.296053,147.731447 315.153947,147.731447 C314.895789,147.731447 314.682632,147.668684 314.518026,147.541974 C314.353421,147.416447 314.252763,147.205658 314.217237,146.908421 L314.095263,147.030395 C313.526842,147.596447 312.858947,147.879474 312.092763,147.879474 C311.596579,147.879474 311.171447,147.726711 310.820921,147.421184 C310.468026,147.115658 310.292763,146.720132 310.292763,146.234605 C310.292763,145.551316 310.548553,145.061053 311.061316,144.763816 C311.376316,144.585 311.951842,144.4275 312.787895,144.2925 C313.371711,144.194211 313.74,144.104211 313.893947,144.0225 C314.109474,143.906447 314.217237,143.694474 314.217237,143.388947 C314.217237,142.885658 314.079868,142.497237 313.805132,142.2225 C313.531579,141.948947 313.143158,141.811579 312.638684,141.811579 C312.207632,141.811579 311.829868,141.927632 311.506579,142.162105 C311.255526,142.342105 311.096842,142.535132 311.034079,142.741184 L310.886053,142.741184 L310.886053,141.986842 C311.236579,141.744079 311.589474,141.559342 311.944737,141.433816 C312.3,141.308289 312.670658,141.244342 313.056711,141.244342 C314.513289,141.244342 315.241579,141.999868 315.241579,143.509737 L315.241579,146.638421 L315.241579,146.638421 Z M314.162763,144.414474 L313.690263,144.508026 C312.908684,144.660789 312.414868,144.782763 312.207632,144.872763 C311.667632,145.115526 311.398816,145.506316 311.398816,146.046316 C311.398816,146.458421 311.514868,146.773421 311.749342,146.990132 C311.982632,147.205658 312.305921,147.313421 312.720395,147.313421 C312.890921,147.313421 313.079211,147.261316 313.286447,147.158289 C313.493684,147.055263 313.664211,146.935658 313.799211,146.800658 C313.871447,146.737895 313.949605,146.663289 314.034868,146.578026 C314.120132,146.492763 314.162763,146.427632 314.162763,146.382632 L314.162763,144.414474 L314.162763,144.414474 Z M322.038947,141.311842 L322.47,141.366316 L322.901053,141.311842 C322.748289,141.629211 322.455789,142.269868 322.024737,143.236184 C321.629211,144.119605 321.291711,144.896447 321.013421,145.564342 C320.617895,146.512895 320.330132,147.253026 320.150132,147.784737 L319.746316,147.731447 L319.327105,147.784737 C319.040526,147.010263 318.648553,146.009605 318.154737,144.783947 C317.606447,143.424474 317.116184,142.272237 316.683947,141.326053 L317.291447,141.366316 L317.884737,141.311842 C318.298026,142.683158 318.968289,144.418026 319.894342,146.517632 C319.957105,146.427632 320.002105,146.364868 320.029342,146.328158 C320.092105,146.247632 320.132368,146.184868 320.150132,146.139868 L320.958947,144.232105 L322.038947,141.311842 L322.038947,141.311842 Z M325.206711,139.568684 L325.206711,141.311842 L326.636053,141.311842 C326.618289,141.438553 326.61,141.532105 326.61,141.596053 C326.61,141.658816 326.618289,141.734605 326.636053,141.824605 L325.206711,141.824605 L325.206711,145.649605 C325.206711,146.200263 325.251711,146.591053 325.341711,146.825526 C325.494474,147.213947 325.782237,147.408158 326.205,147.408158 C326.304474,147.408158 326.414605,147.393947 326.535395,147.366711 C326.657368,147.340658 326.748553,147.321711 326.8125,147.313421 L326.8125,147.636711 C326.595789,147.717237 326.402763,147.778816 326.232237,147.819079 C326.061711,147.859342 325.876974,147.879474 325.679211,147.879474 C325.139211,147.879474 324.753158,147.735 324.518684,147.448421 C324.259342,147.122763 324.127895,146.560263 324.127895,145.757368 L324.127895,141.824605 L323.293026,141.824605 C323.309605,141.771316 323.319079,141.686053 323.319079,141.568816 C323.319079,141.461053 323.309605,141.375789 323.293026,141.311842 L324.127895,141.311842 L324.127895,139.984342 L325.206711,139.568684 L325.206711,139.568684 Z M333.284211,147.771711 L332.745395,147.731447 L332.206579,147.771711 L332.206579,146.612368 C331.764868,147.456711 331.050789,147.879474 330.061974,147.879474 C329.306447,147.879474 328.7475,147.674605 328.382763,147.263684 C328.019211,146.855132 327.836842,146.193158 327.836842,145.286053 L327.836842,141.311842 L328.375658,141.366316 L328.915658,141.326053 L328.915658,144.966316 C328.915658,145.721842 329.038816,146.285526 329.286316,146.658553 C329.533816,147.032763 329.954211,147.218684 330.5475,147.218684 C331.168026,147.218684 331.616842,146.975921 331.896316,146.488026 C332.102368,146.129211 332.206579,145.646053 332.206579,145.043289 L332.206579,141.311842 L332.745395,141.366316 L333.284211,141.326053 L333.284211,147.771711 L333.284211,147.771711 Z M335.470263,141.326053 L336.009079,141.366316 L336.547895,141.311842 L336.547895,142.674868 L336.615395,142.512632 C336.858158,142.125395 337.110395,141.829342 337.370921,141.622105 C337.685921,141.371053 337.999737,141.244342 338.314737,141.244342 C338.494737,141.244342 338.634474,141.266842 338.732763,141.311842 L338.544474,142.445132 C338.499474,142.435658 338.404737,142.397763 338.261447,142.330263 C338.116974,142.262763 337.999737,142.229605 337.909737,142.229605 C337.756974,142.229605 337.600658,142.258026 337.438421,142.317237 C337.276184,142.375263 337.145921,142.458158 337.047632,142.565921 C336.840395,142.811053 336.705395,143.058553 336.642632,143.309605 C336.579868,143.561842 336.547895,143.8875 336.547895,144.283026 L336.547895,147.784737 L336.009079,147.731447 L335.470263,147.771711 L335.470263,141.326053 L335.470263,141.326053 Z M341.308421,147.784737 L340.768421,147.731447 L340.229605,147.771711 L340.229605,141.326053 L340.768421,141.366316 L341.308421,141.326053 L341.308421,147.784737 L341.308421,147.784737 Z M340.768421,139.707237 C340.580132,139.707237 340.417895,139.639737 340.282895,139.505921 C340.149079,139.369737 340.081579,139.208684 340.081579,139.020395 C340.081579,138.830921 340.149079,138.668684 340.282895,138.534868 C340.417895,138.399868 340.580132,138.332368 340.768421,138.332368 C340.948421,138.332368 341.108289,138.3975 341.248026,138.527763 C341.386579,138.658026 341.456447,138.822632 341.456447,139.020395 C341.456447,139.208684 341.388947,139.369737 341.253947,139.505921 C341.120132,139.639737 340.957895,139.707237 340.768421,139.707237 L340.768421,139.707237 Z M343.601053,146.463158 C343.771579,146.750921 343.996579,146.990132 344.274868,147.178421 C344.553158,147.366711 344.845658,147.461447 345.151184,147.461447 C345.493421,147.461447 345.798947,147.344211 346.068947,147.110921 C346.338947,146.877632 346.472763,146.585132 346.472763,146.234605 C346.472763,145.676842 345.943421,145.245789 344.882368,144.939079 C343.821316,144.634737 343.290789,144.0675 343.290789,143.240921 C343.290789,142.610921 343.498026,142.120658 343.911316,141.771316 C344.324605,141.420789 344.850395,141.244342 345.488684,141.244342 C345.803684,141.244342 346.102105,141.283421 346.385132,141.359211 C346.668158,141.436184 346.877763,141.514342 347.012763,141.596053 C346.877763,141.901579 346.77,142.220132 346.689474,142.552895 L346.5675,142.552895 C346.4775,142.319605 346.324737,142.112368 346.109211,141.932368 C345.893684,141.752368 345.663947,141.663553 345.421184,141.663553 C345.070658,141.663553 344.778158,141.761842 344.544868,141.959605 C344.311579,142.157368 344.194342,142.430921 344.194342,142.782632 C344.194342,143.321447 344.724868,143.761974 345.784737,144.104211 C346.845789,144.445263 347.376316,144.993553 347.376316,145.749079 C347.376316,146.422895 347.111053,146.958158 346.580526,147.353684 C346.113947,147.704211 345.551447,147.879474 344.895395,147.879474 C344.617105,147.879474 344.322237,147.841579 344.011974,147.764605 C343.701711,147.688816 343.434079,147.583421 343.210263,147.448421 C343.263553,147.286184 343.318026,147.122763 343.371316,146.955789 C343.425789,146.79 343.466053,146.625395 343.493289,146.463158 L343.601053,146.463158 L343.601053,146.463158 Z M349.938947,139.568684 L349.938947,141.311842 L351.368289,141.311842 C351.350526,141.438553 351.341053,141.532105 351.341053,141.596053 C351.341053,141.658816 351.350526,141.734605 351.368289,141.824605 L349.938947,141.824605 L349.938947,145.649605 C349.938947,146.200263 349.983947,146.591053 350.073947,146.825526 C350.226711,147.213947 350.514474,147.408158 350.937237,147.408158 C351.035526,147.408158 351.145658,147.393947 351.267632,147.366711 C351.388421,147.340658 351.480789,147.321711 351.543553,147.313421 L351.543553,147.636711 C351.328026,147.717237 351.135,147.778816 350.963289,147.819079 C350.792763,147.859342 350.608026,147.879474 350.410263,147.879474 C349.871447,147.879474 349.485395,147.735 349.250921,147.448421 C348.990395,147.122763 348.860132,146.560263 348.860132,145.757368 L348.860132,141.824605 L348.024079,141.824605 C348.041842,141.771316 348.051316,141.686053 348.051316,141.568816 C348.051316,141.461053 348.041842,141.375789 348.024079,141.311842 L348.860132,141.311842 L348.860132,139.984342 L349.938947,139.568684 L349.938947,139.568684 Z M353.525921,146.260658 C353.733158,146.260658 353.916711,146.342368 354.078947,146.503421 C354.24,146.665658 354.321711,146.855132 354.321711,147.070658 C354.321711,147.286184 354.245921,147.474474 354.091974,147.636711 C353.939211,147.798947 353.750921,147.879474 353.525921,147.879474 C353.302105,147.879474 353.107895,147.8025 352.945658,147.649737 C352.784605,147.496974 352.702895,147.303947 352.702895,147.070658 C352.702895,146.855132 352.784605,146.665658 352.945658,146.503421 C353.107895,146.342368 353.302105,146.260658 353.525921,146.260658 L353.525921,146.260658 Z M356.452105,141.326053 L356.990921,141.366316 L357.530921,141.311842 L357.530921,142.674868 L357.598421,142.512632 C357.841184,142.125395 358.093421,141.829342 358.353947,141.622105 C358.667763,141.371053 358.982763,141.244342 359.297763,141.244342 C359.477763,141.244342 359.616316,141.266842 359.715789,141.311842 L359.5275,142.445132 C359.481316,142.435658 359.387763,142.397763 359.243289,142.330263 C359.1,142.262763 358.982763,142.229605 358.892763,142.229605 C358.74,142.229605 358.5825,142.258026 358.421447,142.317237 C358.259211,142.375263 358.128947,142.458158 358.030658,142.565921 C357.823421,142.811053 357.688421,143.058553 357.625658,143.309605 C357.562895,143.561842 357.530921,143.8875 357.530921,144.283026 L357.530921,147.784737 L356.990921,147.731447 L356.452105,147.771711 L356.452105,141.326053 L356.452105,141.326053 Z M366.256184,147.771711 L365.716184,147.731447 L365.177368,147.771711 L365.177368,146.612368 C364.736842,147.456711 364.021579,147.879474 363.032763,147.879474 C362.277237,147.879474 361.717105,147.674605 361.353553,147.263684 C360.99,146.855132 360.807632,146.193158 360.807632,145.286053 L360.807632,141.311842 L361.347632,141.366316 L361.886447,141.326053 L361.886447,144.966316 C361.886447,145.721842 362.010789,146.285526 362.257105,146.658553 C362.504605,147.032763 362.925,147.218684 363.518289,147.218684 C364.138816,147.218684 364.587632,146.975921 364.867105,146.488026 C365.074342,146.129211 365.177368,145.646053 365.177368,145.043289 L365.177368,141.311842 L365.716184,141.366316 L366.256184,141.326053 L366.256184,147.771711 L366.256184,147.771711 Z" id="Fill-46" fill="#072859"></path>
                    <polyline id="Fill-47" fill="#072859" points="287.089342 134.050263 345.849868 134.050263 366.257368 132.567632 266.681842 132.567632 287.089342 134.050263"></polyline>
                </g>
            </g>
        </g>
    </g>
</svg>
